<svg width="114" height="15" viewBox="0 0 114 15" fill="none" xmlns="http://www.w3.org/2000/svg">
<path d="M5.50844 1.58057V3.84557H1.96844L3.36344 2.45057V13.6106L1.96844 12.2156H5.50844V14.4806H0.513437V1.58057H5.50844ZM11.3259 6.50057H15.4209C15.9209 6.50057 16.3109 6.38557 16.5909 6.15557C16.8709 5.92557 17.0109 5.60557 17.0109 5.19557C17.0109 4.77557 16.8709 4.45557 16.5909 4.23557C16.3109 4.00557 15.9209 3.89057 15.4209 3.89057H10.8909L12.2859 2.40557V12.8306H9.18086V1.58057H15.8559C16.7159 1.58057 17.4659 1.73557 18.1059 2.04557C18.7459 2.34557 19.2459 2.76557 19.6059 3.30557C19.9659 3.83557 20.1459 4.46557 20.1459 5.19557C20.1459 5.90557 19.9659 6.53057 19.6059 7.07057C19.2459 7.61057 18.7459 8.03057 18.1059 8.33057C17.4659 8.63057 16.7159 8.78057 15.8559 8.78057H11.3259V6.50057ZM13.0059 7.56557H16.5009L20.5359 12.8306H16.9359L13.0059 7.56557ZM25.5798 13.0706C24.5398 13.0706 23.6098 12.8806 22.7898 12.5006C21.9798 12.1206 21.3398 11.5906 20.8698 10.9106C20.3998 10.2206 20.1648 9.42057 20.1648 8.51057C20.1648 7.62057 20.3898 6.84057 20.8398 6.17057C21.2898 5.49057 21.9048 4.96057 22.6848 4.58057C23.4748 4.20057 24.3648 4.01057 25.3548 4.01057C26.3848 4.01057 27.2598 4.23557 27.9798 4.68557C28.7098 5.12557 29.2698 5.75057 29.6598 6.56057C30.0598 7.37057 30.2598 8.32557 30.2598 9.42557H22.6398V7.58057H28.5348L27.5298 8.22557C27.4898 7.78557 27.3798 7.41557 27.1998 7.11557C27.0198 6.80557 26.7798 6.57057 26.4798 6.41057C26.1898 6.25057 25.8398 6.17057 25.4298 6.17057C24.9798 6.17057 24.5948 6.26057 24.2748 6.44057C23.9548 6.62057 23.7048 6.87057 23.5248 7.19057C23.3448 7.50057 23.2548 7.86557 23.2548 8.28557C23.2548 8.82557 23.3748 9.28557 23.6148 9.66557C23.8648 10.0356 24.2248 10.3206 24.6948 10.5206C25.1748 10.7206 25.7598 10.8206 26.4498 10.8206C27.0798 10.8206 27.7048 10.7406 28.3248 10.5806C28.9548 10.4106 29.5248 10.1756 30.0348 9.87557V11.8256C29.4448 12.2256 28.7698 12.5356 28.0098 12.7556C27.2598 12.9656 26.4498 13.0706 25.5798 13.0706ZM32.4405 12.9806C31.9405 12.9806 31.5305 12.8306 31.2105 12.5306C30.8905 12.2306 30.7305 11.8456 30.7305 11.3756C30.7305 10.8956 30.8905 10.5056 31.2105 10.2056C31.5305 9.90557 31.9405 9.75557 32.4405 9.75557C32.9405 9.75557 33.3505 9.90557 33.6705 10.2056C33.9905 10.5056 34.1505 10.8956 34.1505 11.3756C34.1505 11.8456 33.9905 12.2306 33.6705 12.5306C33.3505 12.8306 32.9405 12.9806 32.4405 12.9806ZM32.4405 7.88057C31.9405 7.88057 31.5305 7.73057 31.2105 7.43057C30.8905 7.12057 30.7305 6.73057 30.7305 6.26057C30.7305 5.79057 30.8905 5.40557 31.2105 5.10557C31.5305 4.79557 31.9405 4.64057 32.4405 4.64057C32.9405 4.64057 33.3505 4.79557 33.6705 5.10557C33.9905 5.40557 34.1505 5.79057 34.1505 6.26057C34.1505 6.73057 33.9905 7.12057 33.6705 7.43057C33.3505 7.73057 32.9405 7.88057 32.4405 7.88057ZM39.8357 10.6706V8.16557H47.5907V10.6706H39.8357ZM45.8207 1.58057L50.9357 12.8306H47.6207L43.3307 2.90057H44.2307L39.9257 12.8306H36.6107L41.7257 1.58057H45.8207ZM60.6849 9.21557C60.6049 9.98557 60.3249 10.6606 59.8449 11.2406C59.3649 11.8206 58.7399 12.2706 57.9699 12.5906C57.2099 12.9106 56.3549 13.0706 55.4049 13.0706C54.3549 13.0706 53.4299 12.8806 52.6299 12.5006C51.8299 12.1206 51.2049 11.5906 50.7549 10.9106C50.3049 10.2306 50.0799 9.44557 50.0799 8.55557C50.0799 7.65557 50.3049 6.86557 50.7549 6.18557C51.2049 5.50557 51.8299 4.97557 52.6299 4.59557C53.4299 4.20557 54.3549 4.01057 55.4049 4.01057C56.3549 4.01057 57.2099 4.17557 57.9699 4.50557C58.7399 4.82557 59.3649 5.27557 59.8449 5.85557C60.3249 6.42557 60.6049 7.10057 60.6849 7.88057H57.6399C57.5299 7.37057 57.2749 6.98057 56.8749 6.71057C56.4749 6.43057 55.9849 6.29057 55.4049 6.29057C54.9549 6.29057 54.5599 6.38057 54.2199 6.56057C53.8899 6.73057 53.6299 6.98557 53.4399 7.32557C53.2599 7.65557 53.1699 8.06557 53.1699 8.55557C53.1699 9.03557 53.2599 9.44557 53.4399 9.78557C53.6299 10.1156 53.8899 10.3706 54.2199 10.5506C54.5599 10.7206 54.9549 10.8056 55.4049 10.8056C55.9849 10.8056 56.4749 10.6606 56.8749 10.3706C57.2849 10.0806 57.5399 9.69557 57.6399 9.21557H60.6849ZM60.2785 6.53057V5.19557L62.0185 4.49057L63.3385 1.95557H65.0785V4.26557H68.6785V6.53057H65.0785V9.05057C65.0785 9.67057 65.2035 10.1056 65.4535 10.3556C65.7035 10.6056 66.1585 10.7306 66.8185 10.7306C67.2385 10.7306 67.6085 10.6956 67.9285 10.6256C68.2585 10.5456 68.5585 10.4456 68.8285 10.3256V12.6356C68.5285 12.7456 68.1335 12.8456 67.6435 12.9356C67.1535 13.0256 66.6485 13.0706 66.1285 13.0706C65.1785 13.0706 64.3985 12.9256 63.7885 12.6356C63.1885 12.3456 62.7435 11.9306 62.4535 11.3906C62.1635 10.8406 62.0185 10.2006 62.0185 9.47057V6.53057H60.2785ZM69.3166 4.13057L70.8616 4.43057L72.3916 4.13057V12.8306H69.3166V4.13057ZM70.8466 3.42557C70.3166 3.42557 69.8866 3.29557 69.5566 3.03557C69.2266 2.76557 69.0616 2.40057 69.0616 1.94057C69.0616 1.49057 69.2266 1.13057 69.5566 0.860566C69.8866 0.590566 70.3166 0.455566 70.8466 0.455566C71.3966 0.455566 71.8316 0.590566 72.1516 0.860566C72.4816 1.13057 72.6466 1.49057 72.6466 1.94057C72.6466 2.40057 72.4816 2.76557 72.1516 3.03557C71.8316 3.29557 71.3966 3.42557 70.8466 3.42557ZM78.8173 11.3756L77.7673 11.3606L80.7373 4.26557H84.0073L80.0023 12.8306H76.5073L72.5023 4.26557H75.8923L78.8173 11.3756ZM83.7006 4.26557H86.7756L87.3306 7.68557V12.8306H84.2706V7.22057L83.7006 4.26557ZM90.4806 4.01057C91.3006 4.01057 92.0006 4.17557 92.5806 4.50557C93.1606 4.83557 93.6006 5.30057 93.9006 5.90057C94.2106 6.50057 94.3656 7.21057 94.3656 8.03057V12.8306H91.3056V8.48057C91.3056 7.84057 91.1406 7.35057 90.8106 7.01057C90.4906 6.67057 90.0256 6.50057 89.4156 6.50057C88.9956 6.50057 88.6256 6.59057 88.3056 6.77057C87.9956 6.95057 87.7556 7.20557 87.5856 7.53557C87.4156 7.86557 87.3306 8.25557 87.3306 8.70557L86.3856 8.21057C86.5056 7.30057 86.7606 6.53557 87.1506 5.91557C87.5406 5.28557 88.0206 4.81057 88.5906 4.49057C89.1606 4.17057 89.7906 4.01057 90.4806 4.01057ZM100.292 13.0706C99.1916 13.0706 98.2316 12.8856 97.4116 12.5156C96.5916 12.1356 95.9516 11.6056 95.4916 10.9256C95.0316 10.2356 94.8016 9.44557 94.8016 8.55557C94.8016 7.64557 95.0316 6.85057 95.4916 6.17057C95.9516 5.49057 96.5916 4.96057 97.4116 4.58057C98.2316 4.20057 99.1916 4.01057 100.292 4.01057C101.382 4.01057 102.337 4.20057 103.157 4.58057C103.987 4.96057 104.632 5.49057 105.092 6.17057C105.552 6.85057 105.782 7.64557 105.782 8.55557C105.782 9.44557 105.552 10.2356 105.092 10.9256C104.632 11.6056 103.987 12.1356 103.157 12.5156C102.337 12.8856 101.382 13.0706 100.292 13.0706ZM100.292 10.8056C100.792 10.8056 101.217 10.7156 101.567 10.5356C101.927 10.3556 102.202 10.0956 102.392 9.75557C102.582 9.41557 102.677 9.01557 102.677 8.55557C102.677 8.07557 102.582 7.67057 102.392 7.34057C102.202 7.00057 101.927 6.74057 101.567 6.56057C101.217 6.38057 100.792 6.29057 100.292 6.29057C99.7916 6.29057 99.3616 6.38057 99.0016 6.56057C98.6416 6.74057 98.3666 7.00057 98.1766 7.34057C97.9866 7.67057 97.8916 8.07057 97.8916 8.54057C97.8916 9.01057 97.9866 9.41557 98.1766 9.75557C98.3666 10.0956 98.6416 10.3556 99.0016 10.5356C99.3616 10.7156 99.7916 10.8056 100.292 10.8056ZM108.86 1.58057H113.855V14.4806H108.86V12.2156H112.415L111.005 13.6106V2.45057L112.415 3.84557H108.86V1.58057Z" fill="currentColor"/>
</svg>
