<svg width="256" height="40" viewBox="0 0 256 40" fill="none" xmlns="http://www.w3.org/2000/svg">
<path d="M0.523438 39.8305V0.542969H10.82V14.9031H38.0497L46.1963 0.542969H58.854L47.4099 20.237L58.854 39.8305H46.1963L38.0497 25.2816H10.82V39.8305H0.523438Z" fill="#4D4D4D"/>
<path d="M119.333 0.542969H154.279V10.9399H129.776V14.8919H177.711V39.8305H119.333V29.3725L167.522 29.439V25.3236H119.333V0.542969Z" fill="#4D4D4D"/>
<path d="M158.251 0.542969V10.9399H182.208V39.8305H192.489V10.9399H216.63V0.542969H158.251Z" fill="#4D4D4D"/>
<path fill-rule="evenodd" clip-rule="evenodd" d="M63.1213 39.8305L51.6772 20.237L63.1213 0.542969H115.202V39.8305H63.1213ZM69.0141 10.9399L63.4861 20.237L69.0141 29.3725H104.905V10.9399H69.0141Z" fill="#4D4D4D"/>
<path fill-rule="evenodd" clip-rule="evenodd" d="M255.523 39.8305V0.542969H220.944V10.9399H245.07V14.8919H196.986V39.8305H255.523ZM245.07 29.546V25.3236H207.359V29.494L245.07 29.546Z" fill="#4D4D4D"/>
</svg>
