<svg width="256" height="40" fill="none" xmlns="http://www.w3.org/2000/svg"><path d="M.523 39.83V.544H10.82v14.36h27.23L46.196.543h12.658L47.41 20.237l11.444 19.594H46.196L38.05 25.28H10.82v14.55H.523ZM119.333.543h34.946V10.94h-24.503v3.952h47.935V39.83h-58.378V29.372l48.189.067v-4.115h-48.189V.543Z" fill="#4D4D4D"/><path d="M158.251.543V10.94h23.957v28.89h10.281V10.94h24.141V.543h-58.379Z" fill="#4D4D4D"/><path fill-rule="evenodd" clip-rule="evenodd" d="M63.121 39.83 51.677 20.238 63.121.543h52.081v39.288h-52.08Zm5.893-28.89-5.528 9.297 5.528 9.136h35.891V10.94h-35.89ZM255.523 39.83V.544h-34.579V10.94h24.126v3.952h-48.084V39.83h58.537ZM245.07 29.547v-4.222h-37.711v4.17l37.711.052Z" fill="#4D4D4D"/></svg>