<?xml version="1.0" encoding="utf-8"?><svg viewBox="0 0 114 23" xmlns="http://www.w3.org/2000/svg" xmlns:xlink="http://www.w3.org/1999/xlink"><style>:root>svg{display:none}:root>svg:target{display:block}</style><svg fill="none" viewBox="0 0 13 13" id="icon-close" xmlns="http://www.w3.org/2000/svg"><path d="m1.523 1.475 5 5m0 0 5 5m-5-5-5 5m5-5 5-5" stroke="currentColor" stroke-width="2" stroke-linecap="round"/></svg><svg viewBox="0 0 14 14" id="icon-cross" xmlns="http://www.w3.org/2000/svg"><path fill-rule="evenodd" clip-rule="evenodd" d="m8.414 7 5.293-5.293A.999.999 0 1 0 12.293.293L7 5.586 1.707.293A.999.999 0 1 0 .293 1.707L5.586 7 .293 12.293a.999.999 0 1 0 1.414 1.414L7 8.414l5.293 5.293a.997.997 0 0 0 1.414 0 .999.999 0 0 0 0-1.414L8.414 7Z" fill="currentColor"/></svg><svg fill="none" viewBox="0 0 16 22" id="icon-up" xmlns="http://www.w3.org/2000/svg"><path d="M9.031.585a1.444 1.444 0 0 0-.477-.303 1.358 1.358 0 0 0-1.097 0c-.178.069-.34.172-.477.303L1.202 6.363a1.45 1.45 0 0 0 2.051 2.051l3.308-3.322v15.297a1.444 1.444 0 1 0 2.889 0V5.092l3.308 3.322a1.45 1.45 0 0 0 2.05-2.051L9.032.585Z" fill="currentColor"/></svg><svg fill="none" viewBox="0 0 23 23" id="icon_btn-arrow" xmlns="http://www.w3.org/2000/svg"><path d="m1.524 21.414 20-20m0 0H8.99m12.533 0v12.533" stroke="currentColor" stroke-width="2" stroke-linecap="round" stroke-linejoin="round"/></svg><svg fill="none" viewBox="0 0 22 15" id="icon_slider-btn-arrow" xmlns="http://www.w3.org/2000/svg"><path d="M.816 6.768a1 1 0 0 0 0 1.414l6.364 6.364a1 1 0 0 0 1.415-1.414L2.938 7.475l5.657-5.657A1 1 0 0 0 7.18.404L.816 6.768Zm.707 1.707h20v-2h-20v2Z" fill="currentColor"/></svg><svg fill="none" viewBox="0 0 114 15" id="logo_re-activno" xmlns="http://www.w3.org/2000/svg"><path d="M5.508 1.58v2.266h-3.54L3.363 2.45v11.16l-1.395-1.395h3.54v2.265H.513V1.58h4.995Zm5.818 4.92h4.095c.5 0 .89-.114 1.17-.344.28-.23.42-.55.42-.96 0-.42-.14-.74-.42-.96-.28-.23-.67-.345-1.17-.345h-4.53l1.395-1.485V12.83H9.18V1.58h6.675c.86 0 1.61.155 2.25.465.64.3 1.14.72 1.5 1.26.36.53.54 1.16.54 1.89 0 .71-.18 1.335-.54 1.875-.36.54-.86.96-1.5 1.26-.64.3-1.39.45-2.25.45h-4.53V6.5Zm1.68 1.066H16.5l4.035 5.265h-3.6l-3.93-5.265ZM25.58 13.07c-1.04 0-1.97-.19-2.79-.57-.81-.38-1.45-.91-1.92-1.59-.47-.69-.705-1.49-.705-2.4 0-.89.225-1.67.675-2.34.45-.68 1.065-1.21 1.845-1.59.79-.38 1.68-.57 2.67-.57 1.03 0 1.905.225 2.625.675.73.44 1.29 1.065 1.68 1.875.4.81.6 1.765.6 2.865h-7.62V7.58h5.895l-1.005.645c-.04-.44-.15-.81-.33-1.11-.18-.31-.42-.545-.72-.705-.29-.16-.64-.24-1.05-.24-.45 0-.835.09-1.155.27-.32.18-.57.43-.75.75-.18.31-.27.675-.27 1.095 0 .54.12 1 .36 1.38.25.37.61.655 1.08.855.48.2 1.065.3 1.755.3.63 0 1.255-.08 1.875-.24a6.9 6.9 0 0 0 1.71-.705v1.95c-.59.4-1.265.71-2.025.93-.75.21-1.56.315-2.43.315Zm6.86-.09c-.5 0-.91-.15-1.23-.45-.32-.3-.48-.685-.48-1.155 0-.48.16-.87.48-1.17.32-.3.73-.45 1.23-.45s.91.15 1.23.45c.32.3.48.69.48 1.17 0 .47-.16.855-.48 1.155-.32.3-.73.45-1.23.45Zm0-5.1c-.5 0-.91-.15-1.23-.45-.32-.31-.48-.7-.48-1.17s.16-.855.48-1.155c.32-.31.73-.465 1.23-.465s.91.155 1.23.465c.32.3.48.685.48 1.155s-.16.86-.48 1.17c-.32.3-.73.45-1.23.45Zm7.396 2.79V8.166h7.755v2.505h-7.755Zm5.985-9.09 5.115 11.25H47.62L43.33 2.9h.9l-4.305 9.93H36.61l5.115-11.25h4.095Zm14.864 7.635c-.08.77-.36 1.445-.84 2.025-.48.58-1.105 1.03-1.875 1.35-.76.32-1.615.48-2.565.48-1.05 0-1.975-.19-2.775-.57-.8-.38-1.425-.91-1.875-1.59-.45-.68-.675-1.465-.675-2.355 0-.9.225-1.69.675-2.37.45-.68 1.075-1.21 1.875-1.59.8-.39 1.725-.585 2.775-.585.95 0 1.805.165 2.565.495.77.32 1.395.77 1.875 1.35.48.57.76 1.245.84 2.025H57.64c-.11-.51-.365-.9-.765-1.17-.4-.28-.89-.42-1.47-.42-.45 0-.845.09-1.185.27-.33.17-.59.425-.78.765-.18.33-.27.74-.27 1.23 0 .48.09.89.27 1.23.19.33.45.585.78.765.34.17.735.255 1.185.255.58 0 1.07-.145 1.47-.435.41-.29.665-.675.765-1.155h3.045Zm-.407-2.685V5.196l1.74-.705 1.32-2.535h1.74v2.31h3.6V6.53h-3.6v2.52c0 .62.126 1.055.376 1.305s.705.375 1.365.375c.42 0 .79-.035 1.11-.105.33-.08.63-.18.9-.3v2.31c-.3.11-.695.21-1.185.3a8.37 8.37 0 0 1-1.516.135c-.95 0-1.73-.145-2.34-.435-.6-.29-1.044-.705-1.334-1.245-.29-.55-.435-1.19-.435-1.92V6.53h-1.74Zm9.039-2.4 1.545.3 1.53-.3v8.7h-3.075v-8.7Zm1.53-.705c-.53 0-.96-.13-1.29-.39-.33-.27-.495-.635-.495-1.095 0-.45.165-.81.495-1.08.33-.27.76-.405 1.29-.405.55 0 .985.135 1.305.405.33.27.495.63.495 1.08 0 .46-.165.825-.495 1.095-.32.26-.755.39-1.305.39Zm7.97 7.95-1.05-.015 2.97-7.095h3.27l-4.005 8.565h-3.495l-4.005-8.565h3.39l2.925 7.11Zm4.884-7.11h3.075l.555 3.42v5.145h-3.06V7.22l-.57-2.955Zm6.78-.255c.82 0 1.52.165 2.1.495.58.33 1.02.795 1.32 1.395.31.6.465 1.31.465 2.13v4.8h-3.06V8.48c0-.64-.165-1.13-.495-1.47-.32-.34-.785-.51-1.395-.51-.42 0-.79.09-1.11.27-.31.18-.55.435-.72.765-.17.33-.255.72-.255 1.17l-.945-.495c.12-.91.375-1.675.765-2.295.39-.63.87-1.105 1.44-1.425.57-.32 1.2-.48 1.89-.48Zm9.811 9.06c-1.1 0-2.06-.185-2.88-.555-.82-.38-1.46-.91-1.92-1.59-.46-.69-.69-1.48-.69-2.37 0-.91.23-1.705.69-2.385.46-.68 1.1-1.21 1.92-1.59.82-.38 1.78-.57 2.88-.57 1.09 0 2.045.19 2.865.57.83.38 1.475.91 1.935 1.59.46.68.69 1.475.69 2.385 0 .89-.23 1.68-.69 2.37-.46.68-1.105 1.21-1.935 1.59-.82.37-1.775.555-2.865.555Zm0-2.265c.5 0 .925-.09 1.275-.27.36-.18.635-.44.825-.78.19-.34.285-.74.285-1.2 0-.48-.095-.885-.285-1.215-.19-.34-.465-.6-.825-.78-.35-.18-.775-.27-1.275-.27-.5 0-.93.09-1.29.27-.36.18-.635.44-.825.78-.19.33-.285.73-.285 1.2s.095.875.285 1.215c.19.34.465.6.825.78.36.18.79.27 1.29.27Zm8.568-9.225h4.995v12.9h-4.995v-2.265h3.555l-1.41 1.395V2.45l1.41 1.395h-3.555V1.58Z" fill="currentColor"/></svg></svg>